<svg role="img" aria-label="Quickboard logo mark" xmlns="http://www.w3.org/2000/svg" width="1920" height="1920" viewBox="0 0 1920 1920" version="1.1">
	<path d="M 674 396.586 C 673.175 396.788, 668 397.407, 662.500 397.960 C 647.904 399.429, 624.932 403.563, 622.492 405.159 C 621.938 405.522, 619.796 406.135, 617.731 406.523 C 615.667 406.910, 613.731 407.626, 613.430 408.113 C 613.129 408.601, 611.896 409.003, 610.691 409.006 C 609.486 409.010, 607.211 409.685, 605.636 410.506 C 604.060 411.328, 602.348 412, 601.831 412 C 598.021 412, 560.220 431.669, 559.167 434.199 C 558.983 434.640, 558.265 435, 557.570 435 C 556.875 435, 555.225 435.948, 553.903 437.106 C 552.581 438.264, 549.485 440.606, 547.022 442.311 C 544.559 444.016, 541.634 446.191, 540.522 447.145 C 539.410 448.098, 537.520 449.694, 536.322 450.689 C 524.580 460.451, 516.740 468.241, 506.500 480.323 C 500.134 487.834, 486.898 506.656, 483.720 512.718 C 472.620 533.889, 464.732 552.528, 461.807 564.500 C 461.269 566.700, 460.426 569.400, 459.934 570.500 C 459.065 572.440, 458.338 576.182, 455.372 594 C 454.594 598.675, 453.544 608.800, 453.038 616.500 C 451.827 634.950, 451.819 1152.917, 453.030 1172 C 453.536 1179.975, 454.646 1190.550, 455.497 1195.500 C 456.348 1200.450, 457.514 1207.425, 458.089 1211 C 458.663 1214.575, 459.553 1217.927, 460.067 1218.450 C 460.580 1218.972, 461 1220.369, 461 1221.553 C 461 1222.737, 462.158 1226.810, 463.573 1230.603 C 464.988 1234.396, 466.515 1238.625, 466.965 1240 C 467.804 1242.561, 470.071 1247.888, 473.859 1256.195 C 475.037 1258.777, 476 1261.327, 476 1261.862 C 476 1262.396, 476.337 1262.983, 476.750 1263.167 C 477.163 1263.350, 478.613 1265.750, 479.972 1268.500 C 482.096 1272.794, 498.460 1298.568, 499.972 1300 C 500.262 1300.275, 502.293 1302.750, 504.484 1305.500 C 515.335 1319.121, 532.639 1335.888, 545.490 1345.235 C 546.045 1345.639, 547.850 1347.012, 549.500 1348.287 C 551.150 1349.561, 555.200 1352.350, 558.500 1354.486 C 561.800 1356.621, 564.725 1358.623, 565.001 1358.934 C 566.482 1360.608, 601.327 1378, 603.200 1378 C 603.970 1378, 605.027 1378.386, 605.550 1378.857 C 606.072 1379.328, 609.875 1380.735, 614 1381.983 C 618.125 1383.231, 622.400 1384.622, 623.500 1385.076 C 629.115 1387.389, 648.426 1391.379, 664.082 1393.460 C 674.094 1394.791, 697.053 1395, 833.372 1395 C 988.245 1395, 991.146 1394.965, 994.790 1393.034 C 1001.680 1389.383, 1004.452 1385.993, 1006.877 1378.251 C 1007.948 1374.833, 1006.364 1364, 1004.794 1364 C 1004.357 1364, 1004 1363.532, 1004 1362.960 C 1004 1362.027, 1000.338 1356.258, 998.947 1355 C 998.643 1354.725, 997.317 1352.700, 996 1350.500 C 994.683 1348.300, 993.342 1346.275, 993.019 1346 C 992.696 1345.725, 988.847 1340.105, 984.466 1333.511 C 975.928 1320.661, 975.969 1320.720, 972.981 1317.097 C 971.892 1315.775, 971 1314.281, 971 1313.776 C 971 1313.270, 970.438 1312.230, 969.750 1311.463 C 967.597 1309.062, 966.646 1307.730, 960.857 1299 C 957.757 1294.325, 954.271 1289.419, 953.110 1288.097 C 951.950 1286.775, 951 1285.125, 951 1284.430 C 951 1283.735, 950.628 1283.017, 950.174 1282.833 C 949.719 1282.650, 946.943 1278.900, 944.004 1274.500 C 941.066 1270.100, 938.400 1266.275, 938.081 1266 C 937.761 1265.725, 937.050 1264.745, 936.500 1263.823 C 935.058 1261.404, 919.687 1239.016, 918.500 1237.604 C 917.950 1236.950, 917.050 1235.677, 916.500 1234.775 C 913.364 1229.632, 902.364 1214.072, 900.127 1211.615 C 896.692 1207.843, 885.142 1200.315, 881.420 1199.424 C 879.814 1199.039, 877.869 1198.224, 877.097 1197.612 C 876.122 1196.839, 857.220 1196.318, 815.097 1195.901 C 748.739 1195.246, 748.438 1195.221, 729.500 1188.724 C 721.451 1185.962, 705.693 1177.622, 702.179 1174.263 C 701.452 1173.568, 700.443 1173, 699.936 1173 C 698.442 1173, 686.663 1162.809, 681.027 1156.639 C 675.709 1150.818, 671.619 1146.225, 670.473 1144.788 C 665.954 1139.122, 660.654 1130.128, 656.455 1121 C 655.063 1117.975, 653.549 1114.810, 653.090 1113.967 C 652.630 1113.124, 651.920 1110.874, 651.512 1108.967 C 651.103 1107.060, 650.422 1105.050, 649.998 1104.500 C 649.573 1103.950, 648.899 1101.475, 648.500 1099 C 648.101 1096.525, 647.439 1094.050, 647.029 1093.500 C 646.620 1092.950, 645.520 1086.650, 644.585 1079.500 C 643.027 1067.585, 642.912 1050.928, 643.211 880 C 643.474 729.579, 643.795 692.146, 644.873 686.500 C 645.609 682.650, 646.554 679.050, 646.975 678.500 C 647.395 677.950, 648.040 675.832, 648.407 673.792 C 648.774 671.753, 649.730 668.828, 650.531 667.292 C 651.332 665.757, 651.990 664.105, 651.994 663.623 C 652.003 662.256, 658.370 649.541, 659.232 649.167 C 659.654 648.983, 660 648.233, 660 647.500 C 660 646.767, 660.357 646.017, 660.793 645.833 C 661.229 645.650, 662.682 643.700, 664.023 641.500 C 666.617 637.244, 668.148 635.285, 674.500 628.087 C 684.844 616.365, 698.026 606.330, 712.109 599.454 C 716.174 597.469, 720.281 595.430, 721.236 594.923 C 722.191 594.415, 723.473 594, 724.085 594 C 724.697 594, 726.616 593.378, 728.349 592.617 C 732.868 590.635, 743.256 588.211, 752.322 587.024 C 762.992 585.627, 1156.852 585.613, 1167.678 587.009 C 1175.683 588.041, 1178.399 588.646, 1188 591.536 C 1192.935 593.022, 1197.417 594.791, 1205 598.249 C 1207.751 599.504, 1218.913 605.959, 1220.500 607.213 C 1221.050 607.648, 1224.200 610.137, 1227.500 612.744 C 1239.751 622.424, 1250.759 635.613, 1258.594 650 C 1259.642 651.925, 1260.729 653.725, 1261.009 654 C 1261.290 654.275, 1262.566 657.200, 1263.847 660.500 C 1265.127 663.800, 1266.578 667.400, 1267.070 668.500 C 1268.715 672.179, 1270.134 678.898, 1273.008 696.615 C 1274.377 705.054, 1274.369 1052.654, 1273 1053.500 C 1272.450 1053.840, 1272 1055.051, 1272 1056.191 C 1272 1058.483, 1268.450 1064.786, 1266.042 1066.770 C 1259.993 1071.754, 1265.827 1071.462, 1161.500 1072 C 1066.599 1072.489, 1064.435 1072.543, 1061.500 1074.500 C 1056.407 1077.896, 1054.887 1079.359, 1052.147 1083.500 L 1049.500 1087.500 1049.500 1273 C 1049.500 1452.291, 1049.563 1458.631, 1051.374 1462.413 C 1055.230 1470.462, 1063.908 1475.539, 1073.500 1475.358 C 1084.657 1475.146, 1088.600 1472.239, 1102.465 1454 C 1105.183 1450.425, 1107.674 1447.275, 1108.002 1447 C 1108.329 1446.725, 1109.678 1444.925, 1111 1443 C 1112.322 1441.075, 1113.704 1439.275, 1114.071 1439 C 1114.439 1438.725, 1117.130 1435.350, 1120.051 1431.500 C 1122.973 1427.650, 1125.640 1424.275, 1125.978 1424 C 1126.317 1423.725, 1128.801 1420.575, 1131.500 1417 C 1134.199 1413.425, 1136.683 1410.275, 1137.022 1410 C 1137.360 1409.725, 1139.986 1406.413, 1142.857 1402.640 C 1145.728 1398.867, 1148.622 1395.235, 1149.288 1394.567 C 1149.955 1393.900, 1151.850 1391.646, 1153.500 1389.559 C 1156.840 1385.334, 1164.558 1375.595, 1169.361 1369.546 C 1171.087 1367.371, 1173.175 1364.873, 1174 1363.994 C 1174.825 1363.115, 1177.720 1359.495, 1180.433 1355.948 C 1183.145 1352.402, 1185.511 1349.309, 1185.689 1349.077 C 1185.868 1348.844, 1188.521 1351.319, 1191.586 1354.577 C 1204.042 1367.818, 1222.379 1387.059, 1231.168 1396.111 C 1240.835 1406.068, 1276.099 1442.788, 1284 1451.126 C 1322.737 1492.002, 1342.879 1512.141, 1347.058 1514.176 C 1354.460 1517.781, 1357.722 1518.930, 1363.434 1519.945 C 1372.281 1521.518, 1569.145 1521.393, 1576.001 1519.810 C 1579.871 1518.917, 1582.332 1517.484, 1585.878 1514.060 C 1596.248 1504.048, 1596.766 1489.141, 1587.161 1477.127 C 1585.238 1474.722, 1577.553 1466.557, 1570.082 1458.982 C 1562.612 1451.407, 1546.309 1434.700, 1533.853 1421.855 C 1521.397 1409.010, 1504.972 1392.130, 1497.353 1384.345 C 1489.734 1376.560, 1468.875 1355.203, 1451 1336.885 C 1433.125 1318.567, 1412.113 1297.037, 1404.307 1289.040 C 1349.491 1232.883, 1340 1222.996, 1340 1222.051 C 1340 1221.546, 1364.125 1221.237, 1396.250 1221.333 C 1451.989 1221.498, 1452.543 1221.480, 1457.183 1219.336 C 1460.352 1217.872, 1462.778 1215.769, 1464.683 1212.836 L 1467.500 1208.500 1467.758 918 C 1467.923 732.563, 1467.656 622.437, 1467.021 613.500 C 1466.473 605.800, 1465.388 595.900, 1464.610 591.500 C 1461.514 573.997, 1460.994 571.407, 1460.089 569 C 1459.572 567.625, 1458.146 563.125, 1456.920 559 C 1455.693 554.875, 1454.350 550.825, 1453.934 550 C 1453.518 549.175, 1452.407 546.250, 1451.467 543.500 C 1449.682 538.284, 1438.032 513.871, 1436.913 513 C 1436.559 512.725, 1435.954 511.488, 1435.567 510.250 C 1435.181 509.012, 1434.446 508, 1433.933 508 C 1433.420 508, 1433 507.573, 1433 507.050 C 1433 505.601, 1419.780 486.500, 1417.047 484 C 1416.746 483.725, 1414.716 481.250, 1412.535 478.500 C 1407.679 472.378, 1389.076 453.886, 1384.695 450.827 C 1382.938 449.600, 1381.275 448.350, 1381 448.048 C 1377.737 444.470, 1355.144 429, 1353.182 429 C 1352.532 429, 1352 428.550, 1352 428 C 1352 427.450, 1351.357 427, 1350.571 427 C 1349.786 427, 1348.548 426.405, 1347.821 425.679 C 1347.095 424.952, 1342 422.233, 1336.500 419.637 C 1331 417.041, 1325.719 414.486, 1324.764 413.959 C 1323.809 413.431, 1322.459 412.997, 1321.764 412.994 C 1321.069 412.990, 1319.243 412.332, 1317.708 411.531 C 1316.172 410.730, 1313.355 409.782, 1311.447 409.424 C 1309.539 409.066, 1307.756 408.413, 1307.484 407.974 C 1307.212 407.534, 1305.079 406.858, 1302.745 406.472 C 1300.410 406.085, 1298.050 405.484, 1297.500 405.135 C 1295.636 403.952, 1277.598 400.442, 1260 397.838 C 1254.671 397.049, 1168.981 396.654, 964 396.473 C 805.325 396.333, 674.825 396.384, 674 396.586" stroke="none" fill="#0B0B0C" fill-rule="evenodd"/>
</svg>